<svg xmlns="http://www.w3.org/2000/svg" viewBox="0 0 1208.89 768.46"><defs><style>.cls-1{fill:#c8d6d3;}.cls-2{fill:#c79081;}.cls-3{fill:#624e53;}.cls-4{fill:#eab88d;}.cls-5{fill:#845233;}.cls-6{fill:#fff;}</style></defs><g id="Layer_13" data-name="Layer 13"><path class="cls-1" d="M162.11,731.21a1062.17,1062.17,0,0,1,350.45,2.6C553.45,741,594.44,750.5,635.62,748c47-2.84,92.71-21.26,139.36-29.56,57.9-10.3,116.61-4.92,175-7.65a640.31,640.31,0,0,0,140.41-22.51c22.16-6.12,44.79-13.82,63.14-31.9,30.54-30.11,44-84.73,43.36-136.23S1183.64,419,1171.19,370.39c-20.15-78.64-41.59-160.16-84.8-218.87-28.9-39.25-65.94-65.77-104.42-84C951,52.91,918.1,43.25,885.5,47.94s-65,25.23-84.19,61.57c-3.42,6.45-6.5,14.68-4.35,22.09a19.38,19.38,0,0,0,7.65,10.13c24.64,18.08,58.78-.48,80.94,22.85,18.34,19.3,16,64.53-4.11,80.14C862,259.79,838,247,815.78,244,763.41,236.79,717,285.26,672,322.55,633,354.84,589.47,380.72,543.9,381c-36.56.19-72.11-16.08-108.54-20.22-71-8.06-140.06,30.05-205.26,69.38C180,460.36,129.16,492.72,89.76,544.82c-18,23.76-34.05,54.56-32.82,88.72,1.26,35.25,21.28,65.12,44.6,80.17S151.28,732.94,162.11,731.21Z"/></g><g id="Layer_4" data-name="Layer 4"><path class="cls-2" d="M23.17,511.35c.13-2.12.3-4.33,1.46-6.11a9.39,9.39,0,0,1,2.3-2.32,19.22,19.22,0,0,1,10.53-3.79l168.45-6L434,487.29l49.39-.34,9.84-.16,8.53.86s3.09.18,3.07.27c-1.65,3.18-4.84,5.22-7.89,7.1l-5.09,3.15a17.34,17.34,0,0,1-2.1,1.18c-.66.3-1.35.52-2,.76a25.49,25.49,0,0,0-8.29,4.3A12,12,0,0,0,475,512.5a9.8,9.8,0,0,1-4.11,7.34,23.73,23.73,0,0,1-7.89,3.58,86.6,86.6,0,0,1-10.31,2.4,19.33,19.33,0,0,0-2.14.44c-3.16.9-5.56,3.45-7.67,6L242.05,528S47.63,524.3,47.77,524.19a44.6,44.6,0,0,1-13.09-1.6,24.25,24.25,0,0,1-7.53-4.17C25,516.52,23,513.86,23.17,511.35Z"/></g><g id="Layer_5" data-name="Layer 5"><path class="cls-3" d="M441.52,530.14c4.2-2.32,7.87-5.28,12.13-7.44L30,520.48c1.25,1.06,3,1.31,4.53,1.89.59.22,1.17.5,1.78.69a11.86,11.86,0,0,0,2.29.43c3,.36,6,.62,9,.8-.16-.13,167.57,3.08,167.57,3.08l224.67,4.74A3.48,3.48,0,0,1,441.52,530.14Z"/></g><g id="Layer_8" data-name="Layer 8"><path class="cls-3" d="M474.92,239.45c-.73-11.62,1.13-23.23,1.76-34.86a31.82,31.82,0,0,0-.33-8.22c-.79-3.73-2.78-7.08-4.76-10.35A116.73,116.73,0,0,1,464.86,174a54.78,54.78,0,0,1-4.2-13.78s-37.23,42.24-37.09,41.9a6.12,6.12,0,0,1-6.32.15,16.21,16.21,0,0,1-4.9-4.44,111.92,111.92,0,0,1-21.5-42.65q4.26-4.23,8.41-8.57a17.31,17.31,0,0,0,2.66-3.32A180,180,0,0,1,416.16,167c3.63-3.35,5.48-8.15,7.37-12.71a206.28,206.28,0,0,1,15.43-30,69.86,69.86,0,0,1,9.88-13c3.88-3.84,8.61-7,13.35-8.14q33,.9,65.91-1.39c8-.55,16.22-1.2,23.75,1.79,16.91,4.43,32.72,12.62,49.81,16.26a34.13,34.13,0,0,0,7,.91c3.22,0,6.39-.71,9.67-1.1,11.11-8.15,22-16.62,32.67-25.3,0,.05.11.11.4,0A31.08,31.08,0,0,0,663.23,108c-4.48,3.38-8.2,7.64-12.05,11.73a215.85,215.85,0,0,1-29.84,26.51q-12.48.72-25,.48c-11.4-.22-23-1.09-33.54-5.53a25.8,25.8,0,0,0-6.82-2.32,90.25,90.25,0,0,0-6.62,32.84,118.62,118.62,0,0,0,4.16,33.18,86.91,86.91,0,0,0,10.28,24.63c1.46,2.37,3.07,4.8,3.09,7.05-1.39,3.61-3.89,6.67-6.47,9.54a177,177,0,0,1-23.5,21.27c-8.06,6.23-16.7,12.33-21.83,20.88C498.45,274.73,476.23,260.14,474.92,239.45Z"/></g><g id="Layer_2" data-name="Layer 2"><path class="cls-4" d="M444.05,75.09c-.46,13.21,9.65,18.26,15.41,28.4a6.48,6.48,0,0,0,7.44,3l-.47.09h0c8.27-.78,8.62-.85,12.83-1.09,1.28,1.32,1.21,3.44,1.19,5,5-1,11,2,15-3-3.45-12.69-3.89-7.75-11-17-3.07-6.82-5.77-15.48-13.92-14.65.5.38.22-.11.6-.16l1.22.36c-6.68-2.2-8.86-9.85-13.58-14.43C454.49,57.81,448,57.2,444,52.72c-1.46,7.76-2.75,16.11.46,23.62Z"/><path class="cls-4" d="M475.53,240.11c10.77,17.78,23.47,35.4,39.85,48.5,11.59-22.35,40.48-29.6,51.5-52.83,8.54,34.6,1.31,75-24.23,100.62,1.83,14.3,3.19,28.74,2.11,43.19a126.53,126.53,0,0,1,37.48,47.66c-2.34,5.25,3.35,9.35,3.63,14.31l-13.75,5.56-41.54-42.45-2.13,0s-.71,1-1,.81c-4.28,20.4-13,39.92-21.47,58.87-2,6.76,3.19,12.51,4,19-1.83,1.8-4,3.25-5.83,5-2.31,1.07-3.5,7.26-6.32,5.4a2.29,2.29,0,0,1-3.2.33,2,2,0,0,1-2.75.35c-.21-.22-.42,0-.54.18-15,3.49.67-25.07,4-30.37a255.45,255.45,0,0,1,3.9-101.32c-3.74-17.14-13.72-32.27-19-49-7-23.79-7.34-49.15-5.95-73.75"/><path class="cls-4" d="M661.73,107.6a42.22,42.22,0,0,1-10.6-12.95,35.32,35.32,0,0,1,3.65-8.6c.36-.66.71-1.32,1.13-2A8.38,8.38,0,0,1,659.48,81a1.47,1.47,0,0,1,2.19,1.81,10.24,10.24,0,0,1-.31,1.46c-.51,1.91-1.12,3.79-1.77,5.65a52.36,52.36,0,0,1,9.86-2.14,49.43,49.43,0,0,1,9.39-.81,4.3,4.3,0,0,1,2.24.54,1.68,1.68,0,0,1,.74,2,2.55,2.55,0,0,1-1.7,1.09l-4.51,1.37a28.13,28.13,0,0,1,8.33-.71,7.27,7.27,0,0,1,2.54.5,3.12,3.12,0,0,1,1.77,1.79,2,2,0,0,1-.77,2.28,3.16,3.16,0,0,1-1,.32c-3.76.8-7.54,1.6-11.36,2,2.7,0,5.37-.67,8.07-.64a6.51,6.51,0,0,1,4.65,1.56,1.78,1.78,0,0,1,.46.69,1.59,1.59,0,0,1-.53,1.62,4.31,4.31,0,0,1-1.6.8,25.13,25.13,0,0,1-10.09,1,8.77,8.77,0,0,0-3.68,0l8.34.32a6.35,6.35,0,0,1,2.49.43,2.19,2.19,0,0,1,1.38,1.95,2.24,2.24,0,0,1-1,1.66,5,5,0,0,1-3.17.83,24.65,24.65,0,0,1-3.31-.47,27.3,27.3,0,0,0-4.52-.38C668.89,107.6,664.41,109.78,661.73,107.6Z"/><path class="cls-4" d="M401.44,143.4q-4.4,5.4-9.29,10.35a6.13,6.13,0,0,1-1.51,1.23,4.48,4.48,0,0,1-2.23.4,4.09,4.09,0,0,1-2.47-.81,2.12,2.12,0,0,1-.69-2.36,6.67,6.67,0,0,0,.35-.71.59.59,0,0,0-.22-.69.74.74,0,0,0-.71.13,7.39,7.39,0,0,1-2.13,1,1.84,1.84,0,0,1-2-.82c-.25-.54-.13-1.21-.47-1.69a3.87,3.87,0,0,1-6.37.31,2.74,2.74,0,0,1-.57-1.32,4.18,4.18,0,0,1,.29-1.67L374,145a1.14,1.14,0,0,0,0-1c-.32-.47-1-.24-1.6-.22a2.75,2.75,0,0,1-2.34-1.73,2.91,2.91,0,0,1-.24-2.3,3.39,3.39,0,0,1,1.63-1.56c3.48-1.85,7.72-1.5,11.48-2.72a7.89,7.89,0,0,1-.57-2.78,2.66,2.66,0,0,1,1.35-2.35,4,4,0,0,1,2.75.11,25.2,25.2,0,0,1,3.89,1.35,24.94,24.94,0,0,1,5,3.58C398.05,137.66,400.86,140.13,401.44,143.4Z"/></g><g id="Layer_7" data-name="Layer 7"><path class="cls-5" d="M467.82,106.45c.89,8.25-.58,16.75,1.39,24.82,1.09,4.49,3.22,8.72,3.8,13.3.44,3.48,0,7-.32,10.48-.5,6.3-.33,12.75,1.65,18.76.67,2,1.71,4.16,3.67,5a1.88,1.88,0,0,0,1.41.13c.72-.27,1-1.13,1.14-1.88,1.81-9.26-1.36-18.82-.42-28.21.64-6.38,3.18-12.6,2.7-19-.16-2.17-.67-4.31-.71-6.48-.07-4.26,1.67-8.61.48-12.7a15.71,15.71,0,0,0-3.09-5.32,11.92,11.92,0,0,0-4.07.31A51.56,51.56,0,0,1,467.82,106.45Z"/><path class="cls-5" d="M494.88,109.16c-1.43-2.47-1.73-5.44-3-8-2-4-6.22-6.4-8.74-10.09-1.63-2.37-2.49-5.17-3.75-7.76s-3.1-5.11-5.81-6.08c-1.25-.45-2.61-.54-3.87-1-3.7-1.19-6-4.81-8-8.15s-4.34-6.93-7.91-8a44.16,44.16,0,0,1-8.19-4.52,9.79,9.79,0,0,1-3.1-3,4.74,4.74,0,0,1,.48-3A6.4,6.4,0,0,1,444,48a7.64,7.64,0,0,1,1.48-1.22c3.87.87,7.14,3.39,10.3,5.81,8.18,6.28,16.63,12.43,26.19,16.32,3.61,1.47,7.42,2.64,10.55,5,7.56,5.62,9.65,16.79,17.94,21.67a15.06,15.06,0,0,0,3.93,2.5c2.06.77,4.35.6,6.54.87a14.86,14.86,0,0,1,10.5,6.37c2.07,2.6,2.11,6.29,1.37,9.53s-2.14,6.32-2.64,9.61c-.78,5.08.65,10.23.55,15.37a10.35,10.35,0,0,1-1,4.7c-.85,1.59-2.32,2.75-3.33,4.24-2.19,3.22-2,7.45-1.7,11.34s.4,8.15-1.92,11.28a2,2,0,0,1-.8.71c-.86.34-1.74-.5-2.18-1.32-1.2-2.22-1.32-4.84-1.64-7.35a30.7,30.7,0,0,0-2.68-9.34c-1.69-3.52-4.2-6.64-5.55-10.31-1.54-4.19-1.49-8.91-3.54-12.88s-5.8-6.66-7.17-10.76c-.66-2-.7-4.19-1.52-6.13C496.65,111.63,494.58,109.73,494.88,109.16Z"/></g><g id="Layer_9" data-name="Layer 9"><path class="cls-2" d="M493.05,75.08c-9.35-3.38-18.85-6.83-26.86-12.71-5.84-4.29-10.82-9.81-17.24-13.15a39.55,39.55,0,0,1-5.08-2.77,24.09,24.09,0,0,1-3.05-2.84c-2.93-3.09-5.86-6.19-8.61-9.44a24.89,24.89,0,0,1-5-8.12,5,5,0,0,1,5.32-3.62,8.63,8.63,0,0,1,2.25.75,48.58,48.58,0,0,1,16.33,12.11c4.47-4.3,9.41-8.48,15.41-10.06a30.92,30.92,0,0,1,8.31-.82c11.7.21,23.52,4.1,32.11,11.84,5.18,5.33,7.24,12.94,8.23,20.31a131.29,131.29,0,0,1,1,18.26c7.9,4.22,11.15,14,18.08,19.62,1.72,1.41,3.65,2.56,5.28,4.07a8.48,8.48,0,0,1,3,5.75,32,32,0,0,1-8.16-1.07,54.14,54.14,0,0,0-5.73-1.9,27.32,27.32,0,0,0-6.82,0,17.82,17.82,0,0,1-6-.44,19.46,19.46,0,0,1-7.3-4.57,33.62,33.62,0,0,1-4.84-5.14c-2-2.72-3.32-5.87-4.94-8.83S495.33,75.9,493.05,75.08Z"/></g><g id="Layer_10" data-name="Layer 10"><path class="cls-3" d="M515.92,74.91,492.41,63.5c-4.32-2.09-8.64-4.19-12.85-6.48C468.91,51.2,458.89,44,451,35a5.26,5.26,0,0,1,1.11-1.1,1.76,1.76,0,0,1,1.49-.26,2.49,2.49,0,0,1,1,.75,17.36,17.36,0,0,1,1.72,2A161.6,161.6,0,0,0,479.5,54a83.89,83.89,0,0,0,10,5.46c8.73,3.88,18.42,5.52,26.74,10.22a12.44,12.44,0,0,1,.08,3.9A2.76,2.76,0,0,1,515.92,74.91Z"/></g><g id="Layer_12" data-name="Layer 12"><path class="cls-6" d="M1078.53,542.72c-2.5-1.78-5.6-2.56-8.12-4.31a24.92,24.92,0,0,1-4.63-4.66c-2.74-3.29-5.52-6.66-7-10.66s-1.68-8.29-2.68-12.41-3.14-8.36-7-10a4.59,4.59,0,0,1-1.93-1.14c-.91-1.17-.1-2.85.64-4.15,7.18-12.53,5.24-29.62-4.55-40.23-3.5-3.8-8-7.07-9.54-12-1.89-6.18,1.61-12.6,2.37-19a22.92,22.92,0,0,0-7.13-19.23c-6.68-12.14-20.93-19.65-35.3-19.47a19.33,19.33,0,0,0-16.15-18.45c-6.21-.86-12.74,1.42-18.72-.49-7.65-2.44-11.68-10.7-18.07-15.56a23.36,23.36,0,0,0-16.51-4.54c-2.39.27-4.88,1-6.48,2.8-3.58,4-.84,10.31,2.15,14.78q4.13,6.15,8.66,12a15.08,15.08,0,0,0-13.49-1c-1.29.55-2.62,1.29-4,1-2.56-.5-3.17-4-2.5-6.51s2-5.12,1.25-7.62c-1-3.05-4.61-4.31-7.8-4.41-5.32-.18-11.32,2.33-12.81,7.44-7-7.27-13.58-14.92-18.44-23.55-4.25-7.54-7.57-16.27-14.92-20.83s-20-.64-19.38,8c.3,4,3.28,7.16,5,10.76,1.87,3.91,2.12,9-.63,12.31s-8.9,3.66-11.08-.09c-3.35-5.79,4.76-13.78,1-19.29-4.55-5.87-14.33-2.84-19.32,2.65s-8,12.9-14.23,17c-6.56,4.29-15.24,3.79-22.69,1.35s-14.23-6.6-21.57-9.38a62.27,62.27,0,0,0-36.19-2.32c-9.34,2.23-18.84,6.66-28.15,4.29-6.29-1.61-12.53-6.26-18.63-4-5.78,2.11-7.83,9.8-5.74,15.59s7.09,10,12.08,13.55c-7.32-.21-12.07-9-19.37-9.56-7.83-.55-12.89,9.47-10.61,17s9,12.67,15.33,17.3c1.8,4.83-4.33,9.06-9.48,9.1s-10.5-1.92-15.32-.11c-3.64,1.36-6.39,4.72-10.18,5.58s-8-1-11.87-.15c-6.05,1.38-8.86,8.72-14.53,11.23-3.73,1.66-8,.93-12.09,1.58s-8.42,3.94-7.5,7.92c.87,3.76,6.09,6.16,5.2,9.91-11.13,1.15-18.69,11.31-26.62,19.21a83.89,83.89,0,0,1-40.58,22.27c-3.88.87-8,1.5-11.29,3.67-4.48,2.91-7,8.15-11.4,11.19-6.61,4.55-17.45,4.46-19.94,12.09-1,3-.27,6.52-2.18,9-2.29,3-6.75,2.55-10.5,2.6a28.19,28.19,0,0,0-22.53,12.13c-9.8.13-20.87,6.18-24.55,15.73-5.24-2.65-9.61-6.75-14.72-9.64s-11.64-4.43-16.77-1.59S378,548.62,383,551.7c-8.44-2.77-18.26-3.28-25.73,1.53s-10.91,16.16-5.23,23c4.53,5.45,12.49,6.17,19.57,6.47s15,.35,20.39-4.36c3.59-3.17,6.85-8.62,11.47-7.38s4.77,7.69,2.65,11.81a21.16,21.16,0,0,1-16.35,11.15l6.39,16.44a14.89,14.89,0,0,0-19.34,19.57q11.87-.2,23.74-.43l5.21-.13a5.3,5.3,0,0,1,4-3.08c24.89-2.9,49.91-4.2,74.95-4.71,23-.46,46-.2,69.05-.15,20.64-6.45,42.76-7.4,64.15-9.49,50-4.9,100.17-9.08,150.47-7.42,17.89.58,35.76-.82,53.66-.35,4.73.13,9.63.32,14.55.73,18.28.16,36.6,1.43,54.81,2.3,15.12.72,30.2.68,45.33.95,4.14-.5,8.29-1,12.44-1.5q27.12-3.17,54.27-5.74,34.17-8.17,68.94-13.57,4.1-15.55,8.21-31.1C1084,549.59,1082,545.18,1078.53,542.72Z"/><path class="cls-6" d="M366.32,630.11l9.6-.16C373.27,628.24,369.43,628.64,366.32,630.11Z"/><path class="cls-6" d="M988.12,490.72c13.8-11.5,37.59-7.34,46.67,8.16,6.12,10.44,6,24.06,13.66,33.38,9.91,12,27.84,11.82,43.3,13.57s33.9,10.9,32.82,26.42c-.38,5.38-3.22,10.28-6.52,14.54-14,18-36.72,27.41-59.31,30.55s-45.53.81-68.31-.35c-21.89-1.12-43.82-1.16-65.74-1.12q-69.91.11-139.83,1.18c-101,1.55-202.39,4.63-301.94,21.74-7.79,1.34-15.67,2.77-23.56,2.24-7.45-.5-14.67-2.74-22.06-3.81-28.77-4.19-57.29,9.37-86.36,9.19-9.22-.06-21.47-6.12-18.19-14.74,2-5.29,8.65-6.69,13.49-9.64,5.74-3.5,9.38-9.74,15.07-13.31,16.94-10.61,44.13,6,53.17-6.65,47.16-33.49,112-18.31,168.74-29.65C644.48,560.17,698.3,516,760.78,516c24.06,0,47.84,6.67,71.88,5.66,33.85-1.42,65.68-18,99.53-19.51C953.29,501.2,975.22,501.46,988.12,490.72Z"/><path class="cls-6" d="M358.86,619.61c9.81-17,30.18-27.3,49.7-25.1q16.68-14,34.43-26.62c5.63-4,11.46-8,18.09-9.88s14.29-1.5,22.15,5c9.55.32,17,11.4,13.77,20.38-2.28,6.27-8.36,10.32-14.44,13.05-19.56,8.78-42.1,8.31-62.2,15.75-7,2.58-13.62,6.11-20.81,8C386.88,623.59,373.48,621.7,358.86,619.61Z"/><path class="cls-6" d="M431.15,594.35c-5.7-14.51-26.15-20.68-38.93-11.74-3.86,2.7-7,6.44-11,8.91-19.25,11.81-46.2-10.81-65.91.22-10.4,5.81-14.56,19.08-24.47,25.7-7,4.68-15.78,5.38-23.87,7.68s-16.58,7.54-17.75,15.86c-1.56,11,11.16,19.39,22.3,19s21.32-6.06,32.1-8.89c35-9.19,71.39,12.62,107.32,8.48,20.53-2.36,40.44-13.16,60.81-9.65,8.68,1.49,16.76,5.54,25.41,7.21,11.72,2.27,23.78.09,35.58-1.69,69.31-10.45,140.35-6.93,209.18-20.15A52.87,52.87,0,0,0,710.79,616a162.2,162.2,0,0,1,117.43,3.8c15.32,6.6,30.9,15.84,47.43,13.58,8.48-1.16,16.33-5.32,24.81-6.51,20.36-2.87,39.69,11.64,60.25,10.92,15.5-.54,29.66-9.69,45.14-10.61,13-.77,25.56,4.31,38.49,5.74,12.74,1.41,25.57-.74,38.21-2.89,14.28-2.43,29.1-5.07,40.93-13.43s19.73-24.18,14.33-37.62c-4.16-10.38-15.13-16.73-26.15-18.65s-22.3-.18-33.4,1.18a506.5,506.5,0,0,1-106.17,1.83c-13-1.15-26.16-2.84-38.54-7.13-14.22-4.92-27.07-13.15-41.06-18.7-36.35-14.41-77.62-9.66-115.08,1.55-20,6-39.76,13.81-60.59,15.48-21.19,1.7-42.67-3.06-63.68.21-25.58,4-52.11,19.54-75.59,8.64-6,10.23-19.64,12.42-31.47,13.54C506.63,580.7,467.17,584.44,431.15,594.35Z"/><path class="cls-6" d="M738,634.44a26.8,26.8,0,0,0,8.29,0,9.14,9.14,0,0,0,6.56-4.63c1.18-2.51.4-6-2.08-7.22-1.26-.64-2.74-.64-4.09-1.06s-2.7-1.56-2.52-3c.16-1.25,1.43-2,2.57-2.54a111.4,111.4,0,0,1,16.66-5.76c3.61-4.62.06-12.06-5.45-14.08s-11.68-.05-16.81,2.78-9.82,6.58-15.36,8.51c-4.85,1.69-10.07,1.89-15.13,2.74s-10.29,2.54-13.66,6.42a3.83,3.83,0,0,0-1.13,2.37c0,1.42,1.32,2.45,2.56,3.16,7.35,4.24,16.27,5.29,24.66,4a12,12,0,0,1,4.57-.2,3.55,3.55,0,0,1,2.92,3.11c0,2.09-2.52,3.65-2.27,5.74C733.26,635.53,738.37,635.26,738,634.44Z"/><path class="cls-6" d="M630.5,641a129.92,129.92,0,0,1-58.32,17.1c-5.47.27-11.26.26-16,3.07-3.65,2.19-6.18,5.8-8.59,9.31-3.77,5.47-7.3,13.6-2.29,18,4.21,3.68,10.66,1.09,15.83-1a72,72,0,0,1,16.15-4.55c3.14-.5,6.42-.78,9.45.2,2.1.69,4,2,6.16,2.46a15.23,15.23,0,0,0,6.9-.38c9.25-2.16,18.07-6.92,27.57-6.78,4.41.07,8.75,1.2,13.16,1.32,5.73.15,11.36-1.4,16.88-3,8.82-2.46,18.08-5.18,24.46-11.75,3.92-4,6.76-9.5,11.93-11.7,2.85-1.22,6-1.26,9.13-1.37a167.44,167.44,0,0,0,32.45-4.31c5.39-1.27,10.71-2.79,16-4.32,4.07-1.17,8.29-2.42,11.46-5.24,5.37-4.78,6.32-12.86,5.46-20-.34-2.85-1-5.81-2.84-8-3-3.49-8.21-4-12.72-3.25s-8.86,2.57-13.44,2.79c-3.84.18-7.64-.77-11.43-1.45a84.29,84.29,0,0,0-41,2.85"/><path class="cls-6" d="M316,563.11a17.46,17.46,0,0,1-12.4-2.51c-2-1.32-3.79-3.07-5.87-4.34a21,21,0,0,0-8.66-2.68c-3.68-.41-7.71-.1-10.58,2.24s-3.81,7.23-1.08,9.73c2.09,1.93,5.28,1.78,8.12,1.8s6.2.68,7.37,3.27c.7,1.55.5,3.62,1.85,4.67a4.66,4.66,0,0,0,2.93.66c6.58,0,13.22,0,19.62-1.48a55.58,55.58,0,0,1,8.11-1.75c2-.16,4,0,5.93-.52s3.74-2.14,3.7-4.13c0-2.16-2.25-3.73-4.4-4s-4.3.31-6.46.48C320.81,564.79,317.34,564,316,563.11Z"/></g></svg>