<svg width="24" height="24" viewBox="0 0 24 24" fill="none" xmlns="http://www.w3.org/2000/svg">
<path d="M17.4992 8.99891C16.604 8.99853 15.7226 9.21997 14.9338 9.64344C14.8618 9.45386 14.7339 9.29068 14.567 9.17555C14.4 9.06043 14.202 8.99882 13.9992 8.99891H9.99924C9.8679 8.99883 9.73783 9.02465 9.61647 9.07488C9.49511 9.1251 9.38484 9.19876 9.29197 9.29164C9.19909 9.38451 9.12543 9.49478 9.07521 9.61614C9.02498 9.7375 8.99916 9.86757 8.99924 9.99891V21.9989C8.99916 22.1303 9.02498 22.2603 9.0752 22.3817C9.12543 22.503 9.19909 22.6133 9.29196 22.7062C9.38483 22.7991 9.4951 22.8727 9.61646 22.9229C9.73782 22.9732 9.8679 22.999 9.99924 22.9989H13.9992C14.1306 22.999 14.2607 22.9732 14.382 22.9229C14.5034 22.8727 14.6136 22.7991 14.7065 22.7062C14.7994 22.6133 14.873 22.503 14.9233 22.3817C14.9735 22.2603 14.9993 22.1303 14.9992 21.9989V16.4989C14.9992 16.2337 15.1046 15.9793 15.2921 15.7918C15.4797 15.6043 15.734 15.4989 15.9992 15.4989C16.2645 15.4989 16.5188 15.6043 16.7063 15.7918C16.8939 15.9793 16.9992 16.2337 16.9992 16.4989V21.9989C16.9992 22.1303 17.025 22.2603 17.0752 22.3817C17.1254 22.503 17.1991 22.6133 17.292 22.7062C17.3848 22.7991 17.4951 22.8727 17.6165 22.9229C17.7378 22.9732 17.8679 22.999 17.9992 22.9989H21.9992C22.1306 22.999 22.2607 22.9732 22.382 22.9229C22.5034 22.8727 22.6136 22.7991 22.7065 22.7062C22.7994 22.6133 22.873 22.503 22.9233 22.3817C22.9735 22.2603 22.9993 22.1303 22.9992 21.9989V14.4989C22.9974 13.0408 22.4174 11.6429 21.3863 10.6118C20.3553 9.58077 18.9574 9.00072 17.4992 8.99891ZM20.9992 20.9989H18.9992V16.4989C18.9992 15.7033 18.6832 14.9402 18.1206 14.3776C17.558 13.815 16.7949 13.4989 15.9992 13.4989C15.2036 13.4989 14.4405 13.815 13.8779 14.3776C13.3153 14.9402 12.9992 15.7033 12.9992 16.4989V20.9989H10.9992V10.9989H12.9992V11.702C12.9994 11.9092 13.0638 12.1113 13.1837 12.2803C13.3036 12.4493 13.473 12.5769 13.6685 12.6455C13.864 12.7141 14.076 12.7203 14.2752 12.6633C14.4744 12.6062 14.6509 12.4887 14.7805 12.327C15.2293 11.7571 15.8448 11.3415 16.5412 11.1383C17.2376 10.9351 17.9801 10.9544 18.665 11.1936C19.3498 11.4328 19.9429 11.8799 20.3614 12.4725C20.7799 13.065 21.0029 13.7735 20.9992 14.4989V20.9989ZM6.99924 8.99891H2.99924C2.8679 8.99883 2.73783 9.02465 2.61647 9.07488C2.49511 9.1251 2.38484 9.19876 2.29196 9.29164C2.19909 9.38451 2.12543 9.49478 2.07521 9.61614C2.02498 9.7375 1.99916 9.86757 1.99924 9.99891V21.9989C1.99916 22.1303 2.02498 22.2603 2.0752 22.3817C2.12543 22.503 2.19909 22.6133 2.29196 22.7062C2.38484 22.7991 2.4951 22.8727 2.61646 22.9229C2.73782 22.9732 2.8679 22.999 2.99924 22.9989H6.99924C7.13058 22.999 7.26065 22.9732 7.38201 22.9229C7.50337 22.8727 7.61364 22.7991 7.70652 22.7062C7.79939 22.6133 7.87305 22.503 7.92327 22.3817C7.9735 22.2603 7.99931 22.1303 7.99924 21.9989V9.99891C7.99931 9.86757 7.9735 9.7375 7.92327 9.61614C7.87304 9.49478 7.79939 9.38451 7.70651 9.29164C7.61364 9.19876 7.50337 9.1251 7.38201 9.07488C7.26065 9.02465 7.13058 8.99883 6.99924 8.99891ZM5.99924 20.9989H3.99924V10.9989H5.99924V20.9989ZM5.01389 1.54191C4.57625 1.51571 4.13785 1.57881 3.72536 1.72735C3.31288 1.8759 2.93491 2.1068 2.61446 2.406C2.294 2.70521 2.03775 3.06646 1.8613 3.46781C1.68484 3.86915 1.59186 4.3022 1.58802 4.7406C1.58417 5.17901 1.66954 5.61361 1.83892 6.01799C2.00831 6.42237 2.25818 6.78807 2.57334 7.09285C2.88849 7.39763 3.26235 7.63512 3.67217 7.79089C4.08199 7.94665 4.51921 8.01742 4.95724 7.99891H4.98556C5.42436 8.02497 5.86386 7.96129 6.27721 7.81176C6.69057 7.66223 7.06909 7.42998 7.38966 7.12922C7.71022 6.82845 7.9661 6.46548 8.14165 6.06249C8.31719 5.65949 8.40873 5.22494 8.41066 4.78537C8.41258 4.3458 8.32486 3.91046 8.15286 3.50594C7.98085 3.10142 7.72817 2.73622 7.41026 2.43266C7.09234 2.12909 6.71587 1.89353 6.30384 1.74038C5.89182 1.58723 5.45289 1.5197 5.01388 1.54191H5.01389ZM4.98557 5.99891H4.95724C4.78431 6.01991 4.60888 6.00369 4.44273 5.95134C4.27658 5.89899 4.12354 5.81171 3.99388 5.69537C3.86422 5.57903 3.76094 5.43631 3.69095 5.27678C3.62097 5.11726 3.5859 4.94461 3.58811 4.77042C3.58811 4.02432 4.14768 3.5419 5.01389 3.5419C5.18859 3.51861 5.36625 3.53303 5.5349 3.58418C5.70356 3.63534 5.8593 3.72204 5.99162 3.83845C6.12395 3.95486 6.22979 4.09828 6.30203 4.25904C6.37426 4.4198 6.4112 4.59418 6.41037 4.77042C6.41037 5.51651 5.8508 5.99891 4.98557 5.99891Z" fill="#2E3A46"/>
</svg>
